ISO-10303-21;
HEADER;
/* Generated by software containing ST-Developer
 * from STEP Tools, Inc. (www.steptools.com) 
 */

FILE_DESCRIPTION(
/* description */ (''),
/* implementation_level */ '2;1');

FILE_NAME(
/* name */ 'Flipsky E-Board Motor 6384 190KV.stp',
/* time_stamp */ '2026-07-23T14:22:42-04:00',
/* author */ ('avsar'),
/* organization */ (''),
/* preprocessor_version */ 'ST-DEVELOPER v20.1',
/* originating_system */ 'Autodesk Inventor 2027',
/* authorisation */ '');

FILE_SCHEMA (('AUTOMOTIVE_DESIGN { 1 0 10303 214 3 1 1 }'));
ENDSEC;

DATA;
#10=MECHANICAL_DESIGN_GEOMETRIC_PRESENTATION_REPRESENTATION('',(#547,#548,
#549,#550,#551,#552,#553,#554,#555,#556,#557,#558,#559,#560,#561,#562,#563,
#564,#565,#566,#567,#568,#569,#570,#571),#1131);
#11=SHAPE_REPRESENTATION_RELATIONSHIP('SRR','None',#1138,#12);
#12=ADVANCED_BREP_SHAPE_REPRESENTATION('',(#13),#1130);
#13=MANIFOLD_SOLID_BREP('Solid1',#614);
#14=CONICAL_SURFACE('',#676,4.75,0.78539816339745);
#15=CONICAL_SURFACE('',#687,31.25,0.785398163397448);
#16=CONICAL_SURFACE('',#720,29.25,0.785398163397448);
#17=B_SPLINE_CURVE_WITH_KNOTS('',3,(#994,#995,#996,#997,#998,#999,#1000,
#1001,#1002,#1003),.UNSPECIFIED.,.F.,.F.,(4,2,2,2,4),(-0.455064911568751,
-0.398173323470364,-0.341281735371976,-0.284407095578176,-0.227532455784376),
 .UNSPECIFIED.);
#18=B_SPLINE_CURVE_WITH_KNOTS('',3,(#1005,#1006,#1007,#1008,#1009,#1010,
#1011,#1012,#1013,#1014),.UNSPECIFIED.,.F.,.F.,(4,2,2,2,4),(-0.227532455784376,
-0.170657815990575,-0.113783176196775,-0.0568915880983875,0.),
 .UNSPECIFIED.);
#19=B_SPLINE_CURVE_WITH_KNOTS('',3,(#1018,#1019,#1020,#1021,#1022,#1023,
#1024,#1025,#1026,#1027),.UNSPECIFIED.,.F.,.F.,(4,2,2,2,4),(0.,0.0568915880983876,
0.113783176196775,0.170657815990575,0.227532455784376),.UNSPECIFIED.);
#20=B_SPLINE_CURVE_WITH_KNOTS('',3,(#1029,#1030,#1031,#1032,#1033,#1034,
#1035,#1036,#1037,#1038),.UNSPECIFIED.,.F.,.F.,(4,2,2,2,4),(0.227532455784376,
0.284407095578176,0.341281735371977,0.398173323470364,0.455064911568751),
 .UNSPECIFIED.);
#21=TOROIDAL_SURFACE('',#642,9.15,0.35);
#22=TOROIDAL_SURFACE('',#651,9.45,0.35);
#23=FACE_BOUND('',#101,.T.);
#24=FACE_BOUND('',#104,.T.);
#25=FACE_BOUND('',#110,.T.);
#26=FACE_BOUND('',#113,.T.);
#27=FACE_BOUND('',#115,.T.);
#28=FACE_BOUND('',#117,.T.);
#29=FACE_BOUND('',#121,.T.);
#30=FACE_BOUND('',#130,.T.);
#31=FACE_BOUND('',#144,.T.);
#32=FACE_BOUND('',#147,.T.);
#33=FACE_BOUND('',#151,.T.);
#34=FACE_BOUND('',#152,.T.);
#35=FACE_BOUND('',#153,.T.);
#36=FACE_BOUND('',#154,.T.);
#37=FACE_BOUND('',#155,.T.);
#38=PLANE('',#640);
#39=PLANE('',#647);
#40=PLANE('',#660);
#41=PLANE('',#664);
#42=PLANE('',#665);
#43=PLANE('',#667);
#44=PLANE('',#671);
#45=PLANE('',#677);
#46=PLANE('',#681);
#47=PLANE('',#682);
#48=PLANE('',#686);
#49=PLANE('',#696);
#50=PLANE('',#700);
#51=PLANE('',#704);
#52=PLANE('',#708);
#53=PLANE('',#709);
#54=PLANE('',#712);
#55=PLANE('',#716);
#56=PLANE('',#722);
#57=FACE_OUTER_BOUND('',#99,.T.);
#58=FACE_OUTER_BOUND('',#100,.T.);
#59=FACE_OUTER_BOUND('',#102,.T.);
#60=FACE_OUTER_BOUND('',#103,.T.);
#61=FACE_OUTER_BOUND('',#105,.T.);
#62=FACE_OUTER_BOUND('',#106,.T.);
#63=FACE_OUTER_BOUND('',#107,.T.);
#64=FACE_OUTER_BOUND('',#108,.T.);
#65=FACE_OUTER_BOUND('',#109,.T.);
#66=FACE_OUTER_BOUND('',#111,.T.);
#67=FACE_OUTER_BOUND('',#112,.T.);
#68=FACE_OUTER_BOUND('',#114,.T.);
#69=FACE_OUTER_BOUND('',#116,.T.);
#70=FACE_OUTER_BOUND('',#118,.T.);
#71=FACE_OUTER_BOUND('',#119,.T.);
#72=FACE_OUTER_BOUND('',#120,.T.);
#73=FACE_OUTER_BOUND('',#122,.T.);
#74=FACE_OUTER_BOUND('',#123,.T.);
#75=FACE_OUTER_BOUND('',#124,.T.);
#76=FACE_OUTER_BOUND('',#125,.T.);
#77=FACE_OUTER_BOUND('',#126,.T.);
#78=FACE_OUTER_BOUND('',#127,.T.);
#79=FACE_OUTER_BOUND('',#128,.T.);
#80=FACE_OUTER_BOUND('',#129,.T.);
#81=FACE_OUTER_BOUND('',#131,.T.);
#82=FACE_OUTER_BOUND('',#132,.T.);
#83=FACE_OUTER_BOUND('',#133,.T.);
#84=FACE_OUTER_BOUND('',#134,.T.);
#85=FACE_OUTER_BOUND('',#135,.T.);
#86=FACE_OUTER_BOUND('',#136,.T.);
#87=FACE_OUTER_BOUND('',#137,.T.);
#88=FACE_OUTER_BOUND('',#138,.T.);
#89=FACE_OUTER_BOUND('',#139,.T.);
#90=FACE_OUTER_BOUND('',#140,.T.);
#91=FACE_OUTER_BOUND('',#141,.T.);
#92=FACE_OUTER_BOUND('',#142,.T.);
#93=FACE_OUTER_BOUND('',#143,.T.);
#94=FACE_OUTER_BOUND('',#145,.T.);
#95=FACE_OUTER_BOUND('',#146,.T.);
#96=FACE_OUTER_BOUND('',#148,.T.);
#97=FACE_OUTER_BOUND('',#149,.T.);
#98=FACE_OUTER_BOUND('',#150,.T.);
#99=EDGE_LOOP('',(#379,#380,#381,#382));
#100=EDGE_LOOP('',(#383));
#101=EDGE_LOOP('',(#384));
#102=EDGE_LOOP('',(#385,#386,#387,#388,#389));
#103=EDGE_LOOP('',(#390));
#104=EDGE_LOOP('',(#391));
#105=EDGE_LOOP('',(#392,#393,#394,#395,#396));
#106=EDGE_LOOP('',(#397,#398,#399,#400,#401));
#107=EDGE_LOOP('',(#402,#403,#404,#405,#406));
#108=EDGE_LOOP('',(#407,#408,#409,#410));
#109=EDGE_LOOP('',(#411));
#110=EDGE_LOOP('',(#412));
#111=EDGE_LOOP('',(#413,#414,#415,#416));
#112=EDGE_LOOP('',(#417));
#113=EDGE_LOOP('',(#418));
#114=EDGE_LOOP('',(#419));
#115=EDGE_LOOP('',(#420));
#116=EDGE_LOOP('',(#421));
#117=EDGE_LOOP('',(#422));
#118=EDGE_LOOP('',(#423,#424,#425,#426));
#119=EDGE_LOOP('',(#427));
#120=EDGE_LOOP('',(#428,#429,#430,#431,#432));
#121=EDGE_LOOP('',(#433,#434,#435,#436,#437,#438));
#122=EDGE_LOOP('',(#439,#440,#441,#442,#443));
#123=EDGE_LOOP('',(#444,#445,#446,#447));
#124=EDGE_LOOP('',(#448,#449,#450,#451,#452));
#125=EDGE_LOOP('',(#453,#454,#455,#456));
#126=EDGE_LOOP('',(#457,#458,#459,#460));
#127=EDGE_LOOP('',(#461,#462,#463,#464,#465));
#128=EDGE_LOOP('',(#466,#467,#468,#469));
#129=EDGE_LOOP('',(#470));
#130=EDGE_LOOP('',(#471));
#131=EDGE_LOOP('',(#472,#473,#474,#475,#476));
#132=EDGE_LOOP('',(#477,#478,#479,#480));
#133=EDGE_LOOP('',(#481,#482,#483,#484));
#134=EDGE_LOOP('',(#485));
#135=EDGE_LOOP('',(#486,#487,#488,#489));
#136=EDGE_LOOP('',(#490));
#137=EDGE_LOOP('',(#491,#492,#493,#494));
#138=EDGE_LOOP('',(#495));
#139=EDGE_LOOP('',(#496,#497,#498,#499));
#140=EDGE_LOOP('',(#500));
#141=EDGE_LOOP('',(#501));
#142=EDGE_LOOP('',(#502,#503,#504,#505,#506));
#143=EDGE_LOOP('',(#507));
#144=EDGE_LOOP('',(#508));
#145=EDGE_LOOP('',(#509,#510,#511,#512));
#146=EDGE_LOOP('',(#513));
#147=EDGE_LOOP('',(#514));
#148=EDGE_LOOP('',(#515,#516,#517,#518));
#149=EDGE_LOOP('',(#519,#520,#521,#522));
#150=EDGE_LOOP('',(#523));
#151=EDGE_LOOP('',(#524));
#152=EDGE_LOOP('',(#525));
#153=EDGE_LOOP('',(#526));
#154=EDGE_LOOP('',(#527));
#155=EDGE_LOOP('',(#528));
#156=LINE('',#929,#183);
#157=LINE('',#947,#184);
#158=LINE('',#957,#185);
#159=LINE('',#963,#186);
#160=LINE('',#970,#187);
#161=LINE('',#982,#188);
#162=LINE('',#991,#189);
#163=LINE('',#1016,#190);
#164=LINE('',#1039,#191);
#165=LINE('',#1041,#192);
#166=LINE('',#1047,#193);
#167=LINE('',#1050,#194);
#168=LINE('',#1052,#195);
#169=LINE('',#1053,#196);
#170=LINE('',#1055,#197);
#171=LINE('',#1057,#198);
#172=LINE('',#1062,#199);
#173=LINE('',#1068,#200);
#174=LINE('',#1075,#201);
#175=LINE('',#1080,#202);
#176=LINE('',#1087,#203);
#177=LINE('',#1094,#204);
#178=LINE('',#1101,#205);
#179=LINE('',#1108,#206);
#180=LINE('',#1115,#207);
#181=LINE('',#1122,#208);
#182=LINE('',#1126,#209);
#183=VECTOR('',#729,7.65);
#184=VECTOR('',#752,8.8);
#185=VECTOR('',#765,9.8);
#186=VECTOR('',#772,8.4);
#187=VECTOR('',#781,10.5);
#188=VECTOR('',#798,7.);
#189=VECTOR('',#809,5.);
#190=VECTOR('',#810,10.);
#191=VECTOR('',#811,10.);
#192=VECTOR('',#814,4.75);
#193=VECTOR('',#819,10.);
#194=VECTOR('',#822,10.);
#195=VECTOR('',#825,10.);
#196=VECTOR('',#826,10.);
#197=VECTOR('',#829,10.);
#198=VECTOR('',#832,10.);
#199=VECTOR('',#839,11.);
#200=VECTOR('',#846,31.25);
#201=VECTOR('',#855,31.);
#202=VECTOR('',#860,2.);
#203=VECTOR('',#869,2.);
#204=VECTOR('',#878,2.);
#205=VECTOR('',#887,2.);
#206=VECTOR('',#898,31.5);
#207=VECTOR('',#907,30.5);
#208=VECTOR('',#916,31.5);
#209=VECTOR('',#921,29.25);
#210=CIRCLE('',#638,7.65);
#211=CIRCLE('',#639,7.65);
#212=CIRCLE('',#641,7.);
#213=CIRCLE('',#643,9.15);
#214=CIRCLE('',#644,0.35);
#215=CIRCLE('',#645,8.8);
#216=CIRCLE('',#646,8.8);
#217=CIRCLE('',#648,9.45);
#218=CIRCLE('',#650,8.8);
#219=CIRCLE('',#652,0.35);
#220=CIRCLE('',#653,9.8);
#221=CIRCLE('',#654,9.8);
#222=CIRCLE('',#656,9.8);
#223=CIRCLE('',#658,8.4);
#224=CIRCLE('',#659,8.4);
#225=CIRCLE('',#662,10.5);
#226=CIRCLE('',#663,10.5);
#227=CIRCLE('',#666,11.);
#228=CIRCLE('',#668,7.);
#229=CIRCLE('',#669,5.);
#230=CIRCLE('',#672,4.5);
#231=CIRCLE('',#674,5.);
#232=CIRCLE('',#675,5.);
#233=CIRCLE('',#678,1.5);
#234=CIRCLE('',#679,1.5);
#235=CIRCLE('',#685,11.);
#236=CIRCLE('',#688,31.);
#237=CIRCLE('',#689,31.5);
#238=CIRCLE('',#690,31.5);
#239=CIRCLE('',#692,31.);
#240=CIRCLE('',#694,2.);
#241=CIRCLE('',#695,2.);
#242=CIRCLE('',#698,2.);
#243=CIRCLE('',#699,2.);
#244=CIRCLE('',#702,2.);
#245=CIRCLE('',#703,2.);
#246=CIRCLE('',#706,2.);
#247=CIRCLE('',#707,2.);
#248=CIRCLE('',#711,31.5);
#249=CIRCLE('',#713,30.5);
#250=CIRCLE('',#715,30.5);
#251=CIRCLE('',#717,31.5);
#252=CIRCLE('',#719,31.5);
#253=CIRCLE('',#721,27.);
#254=VERTEX_POINT('',#926);
#255=VERTEX_POINT('',#928);
#256=VERTEX_POINT('',#932);
#257=VERTEX_POINT('',#935);
#258=VERTEX_POINT('',#937);
#259=VERTEX_POINT('',#939);
#260=VERTEX_POINT('',#943);
#261=VERTEX_POINT('',#946);
#262=VERTEX_POINT('',#950);
#263=VERTEX_POINT('',#952);
#264=VERTEX_POINT('',#956);
#265=VERTEX_POINT('',#960);
#266=VERTEX_POINT('',#962);
#267=VERTEX_POINT('',#967);
#268=VERTEX_POINT('',#969);
#269=VERTEX_POINT('',#974);
#270=VERTEX_POINT('',#977);
#271=VERTEX_POINT('',#979);
#272=VERTEX_POINT('',#984);
#273=VERTEX_POINT('',#987);
#274=VERTEX_POINT('',#988);
#275=VERTEX_POINT('',#992);
#276=VERTEX_POINT('',#993);
#277=VERTEX_POINT('',#1004);
#278=VERTEX_POINT('',#1015);
#279=VERTEX_POINT('',#1017);
#280=VERTEX_POINT('',#1028);
#281=VERTEX_POINT('',#1043);
#282=VERTEX_POINT('',#1044);
#283=VERTEX_POINT('',#1046);
#284=VERTEX_POINT('',#1048);
#285=VERTEX_POINT('',#1060);
#286=VERTEX_POINT('',#1065);
#287=VERTEX_POINT('',#1067);
#288=VERTEX_POINT('',#1069);
#289=VERTEX_POINT('',#1073);
#290=VERTEX_POINT('',#1077);
#291=VERTEX_POINT('',#1079);
#292=VERTEX_POINT('',#1084);
#293=VERTEX_POINT('',#1086);
#294=VERTEX_POINT('',#1091);
#295=VERTEX_POINT('',#1093);
#296=VERTEX_POINT('',#1098);
#297=VERTEX_POINT('',#1100);
#298=VERTEX_POINT('',#1106);
#299=VERTEX_POINT('',#1110);
#300=VERTEX_POINT('',#1113);
#301=VERTEX_POINT('',#1117);
#302=VERTEX_POINT('',#1120);
#303=VERTEX_POINT('',#1124);
#304=EDGE_CURVE('',#254,#254,#210,.T.);
#305=EDGE_CURVE('',#254,#255,#156,.T.);
#306=EDGE_CURVE('',#255,#255,#211,.T.);
#307=EDGE_CURVE('',#256,#256,#212,.T.);
#308=EDGE_CURVE('',#257,#257,#213,.T.);
#309=EDGE_CURVE('',#257,#258,#214,.T.);
#310=EDGE_CURVE('',#258,#259,#215,.T.);
#311=EDGE_CURVE('',#259,#258,#216,.T.);
#312=EDGE_CURVE('',#260,#260,#217,.T.);
#313=EDGE_CURVE('',#259,#261,#157,.T.);
#314=EDGE_CURVE('',#261,#261,#218,.T.);
#315=EDGE_CURVE('',#260,#262,#219,.T.);
#316=EDGE_CURVE('',#262,#263,#220,.T.);
#317=EDGE_CURVE('',#263,#262,#221,.T.);
#318=EDGE_CURVE('',#263,#264,#158,.T.);
#319=EDGE_CURVE('',#264,#264,#222,.T.);
#320=EDGE_CURVE('',#265,#265,#223,.T.);
#321=EDGE_CURVE('',#265,#266,#159,.T.);
#322=EDGE_CURVE('',#266,#266,#224,.T.);
#323=EDGE_CURVE('',#267,#267,#225,.T.);
#324=EDGE_CURVE('',#267,#268,#160,.T.);
#325=EDGE_CURVE('',#268,#268,#226,.T.);
#326=EDGE_CURVE('',#269,#269,#227,.T.);
#327=EDGE_CURVE('',#270,#270,#228,.T.);
#328=EDGE_CURVE('',#271,#271,#229,.T.);
#329=EDGE_CURVE('',#270,#256,#161,.T.);
#330=EDGE_CURVE('',#272,#272,#230,.T.);
#331=EDGE_CURVE('',#273,#274,#231,.T.);
#332=EDGE_CURVE('',#274,#273,#232,.T.);
#333=EDGE_CURVE('',#274,#271,#162,.T.);
#334=EDGE_CURVE('',#275,#276,#17,.T.);
#335=EDGE_CURVE('',#276,#277,#18,.T.);
#336=EDGE_CURVE('',#277,#278,#163,.T.);
#337=EDGE_CURVE('',#278,#279,#19,.T.);
#338=EDGE_CURVE('',#279,#280,#20,.T.);
#339=EDGE_CURVE('',#280,#275,#164,.T.);
#340=EDGE_CURVE('',#272,#273,#165,.T.);
#341=EDGE_CURVE('',#281,#282,#233,.T.);
#342=EDGE_CURVE('',#283,#281,#166,.T.);
#343=EDGE_CURVE('',#284,#283,#234,.T.);
#344=EDGE_CURVE('',#282,#284,#167,.T.);
#345=EDGE_CURVE('',#275,#284,#168,.T.);
#346=EDGE_CURVE('',#277,#283,#169,.T.);
#347=EDGE_CURVE('',#278,#281,#170,.T.);
#348=EDGE_CURVE('',#280,#282,#171,.T.);
#349=EDGE_CURVE('',#285,#285,#235,.T.);
#350=EDGE_CURVE('',#285,#269,#172,.T.);
#351=EDGE_CURVE('',#286,#286,#236,.T.);
#352=EDGE_CURVE('',#286,#287,#173,.T.);
#353=EDGE_CURVE('',#288,#287,#237,.T.);
#354=EDGE_CURVE('',#287,#288,#238,.T.);
#355=EDGE_CURVE('',#289,#289,#239,.T.);
#356=EDGE_CURVE('',#289,#286,#174,.T.);
#357=EDGE_CURVE('',#290,#290,#240,.T.);
#358=EDGE_CURVE('',#290,#291,#175,.T.);
#359=EDGE_CURVE('',#291,#291,#241,.T.);
#360=EDGE_CURVE('',#292,#292,#242,.T.);
#361=EDGE_CURVE('',#292,#293,#176,.T.);
#362=EDGE_CURVE('',#293,#293,#243,.T.);
#363=EDGE_CURVE('',#294,#294,#244,.T.);
#364=EDGE_CURVE('',#294,#295,#177,.T.);
#365=EDGE_CURVE('',#295,#295,#245,.T.);
#366=EDGE_CURVE('',#296,#296,#246,.T.);
#367=EDGE_CURVE('',#296,#297,#178,.T.);
#368=EDGE_CURVE('',#297,#297,#247,.T.);
#369=EDGE_CURVE('',#298,#298,#248,.T.);
#370=EDGE_CURVE('',#298,#288,#179,.T.);
#371=EDGE_CURVE('',#299,#299,#249,.T.);
#372=EDGE_CURVE('',#300,#300,#250,.T.);
#373=EDGE_CURVE('',#300,#299,#180,.T.);
#374=EDGE_CURVE('',#301,#301,#251,.T.);
#375=EDGE_CURVE('',#302,#302,#252,.T.);
#376=EDGE_CURVE('',#302,#301,#181,.T.);
#377=EDGE_CURVE('',#303,#303,#253,.T.);
#378=EDGE_CURVE('',#303,#302,#182,.T.);
#379=ORIENTED_EDGE('',*,*,#304,.F.);
#380=ORIENTED_EDGE('',*,*,#305,.T.);
#381=ORIENTED_EDGE('',*,*,#306,.T.);
#382=ORIENTED_EDGE('',*,*,#305,.F.);
#383=ORIENTED_EDGE('',*,*,#306,.F.);
#384=ORIENTED_EDGE('',*,*,#307,.F.);
#385=ORIENTED_EDGE('',*,*,#308,.T.);
#386=ORIENTED_EDGE('',*,*,#309,.T.);
#387=ORIENTED_EDGE('',*,*,#310,.T.);
#388=ORIENTED_EDGE('',*,*,#311,.T.);
#389=ORIENTED_EDGE('',*,*,#309,.F.);
#390=ORIENTED_EDGE('',*,*,#312,.F.);
#391=ORIENTED_EDGE('',*,*,#308,.F.);
#392=ORIENTED_EDGE('',*,*,#310,.F.);
#393=ORIENTED_EDGE('',*,*,#311,.F.);
#394=ORIENTED_EDGE('',*,*,#313,.T.);
#395=ORIENTED_EDGE('',*,*,#314,.T.);
#396=ORIENTED_EDGE('',*,*,#313,.F.);
#397=ORIENTED_EDGE('',*,*,#312,.T.);
#398=ORIENTED_EDGE('',*,*,#315,.T.);
#399=ORIENTED_EDGE('',*,*,#316,.T.);
#400=ORIENTED_EDGE('',*,*,#317,.T.);
#401=ORIENTED_EDGE('',*,*,#315,.F.);
#402=ORIENTED_EDGE('',*,*,#317,.F.);
#403=ORIENTED_EDGE('',*,*,#318,.T.);
#404=ORIENTED_EDGE('',*,*,#319,.T.);
#405=ORIENTED_EDGE('',*,*,#318,.F.);
#406=ORIENTED_EDGE('',*,*,#316,.F.);
#407=ORIENTED_EDGE('',*,*,#320,.F.);
#408=ORIENTED_EDGE('',*,*,#321,.T.);
#409=ORIENTED_EDGE('',*,*,#322,.T.);
#410=ORIENTED_EDGE('',*,*,#321,.F.);
#411=ORIENTED_EDGE('',*,*,#314,.F.);
#412=ORIENTED_EDGE('',*,*,#322,.F.);
#413=ORIENTED_EDGE('',*,*,#323,.F.);
#414=ORIENTED_EDGE('',*,*,#324,.T.);
#415=ORIENTED_EDGE('',*,*,#325,.T.);
#416=ORIENTED_EDGE('',*,*,#324,.F.);
#417=ORIENTED_EDGE('',*,*,#325,.F.);
#418=ORIENTED_EDGE('',*,*,#319,.F.);
#419=ORIENTED_EDGE('',*,*,#326,.F.);
#420=ORIENTED_EDGE('',*,*,#323,.T.);
#421=ORIENTED_EDGE('',*,*,#327,.T.);
#422=ORIENTED_EDGE('',*,*,#328,.F.);
#423=ORIENTED_EDGE('',*,*,#327,.F.);
#424=ORIENTED_EDGE('',*,*,#329,.T.);
#425=ORIENTED_EDGE('',*,*,#307,.T.);
#426=ORIENTED_EDGE('',*,*,#329,.F.);
#427=ORIENTED_EDGE('',*,*,#330,.F.);
#428=ORIENTED_EDGE('',*,*,#331,.F.);
#429=ORIENTED_EDGE('',*,*,#332,.F.);
#430=ORIENTED_EDGE('',*,*,#333,.T.);
#431=ORIENTED_EDGE('',*,*,#328,.T.);
#432=ORIENTED_EDGE('',*,*,#333,.F.);
#433=ORIENTED_EDGE('',*,*,#334,.T.);
#434=ORIENTED_EDGE('',*,*,#335,.T.);
#435=ORIENTED_EDGE('',*,*,#336,.T.);
#436=ORIENTED_EDGE('',*,*,#337,.T.);
#437=ORIENTED_EDGE('',*,*,#338,.T.);
#438=ORIENTED_EDGE('',*,*,#339,.T.);
#439=ORIENTED_EDGE('',*,*,#330,.T.);
#440=ORIENTED_EDGE('',*,*,#340,.T.);
#441=ORIENTED_EDGE('',*,*,#331,.T.);
#442=ORIENTED_EDGE('',*,*,#332,.T.);
#443=ORIENTED_EDGE('',*,*,#340,.F.);
#444=ORIENTED_EDGE('',*,*,#341,.F.);
#445=ORIENTED_EDGE('',*,*,#342,.F.);
#446=ORIENTED_EDGE('',*,*,#343,.F.);
#447=ORIENTED_EDGE('',*,*,#344,.F.);
#448=ORIENTED_EDGE('',*,*,#335,.F.);
#449=ORIENTED_EDGE('',*,*,#334,.F.);
#450=ORIENTED_EDGE('',*,*,#345,.T.);
#451=ORIENTED_EDGE('',*,*,#343,.T.);
#452=ORIENTED_EDGE('',*,*,#346,.F.);
#453=ORIENTED_EDGE('',*,*,#336,.F.);
#454=ORIENTED_EDGE('',*,*,#346,.T.);
#455=ORIENTED_EDGE('',*,*,#342,.T.);
#456=ORIENTED_EDGE('',*,*,#347,.F.);
#457=ORIENTED_EDGE('',*,*,#339,.F.);
#458=ORIENTED_EDGE('',*,*,#348,.T.);
#459=ORIENTED_EDGE('',*,*,#344,.T.);
#460=ORIENTED_EDGE('',*,*,#345,.F.);
#461=ORIENTED_EDGE('',*,*,#337,.F.);
#462=ORIENTED_EDGE('',*,*,#347,.T.);
#463=ORIENTED_EDGE('',*,*,#341,.T.);
#464=ORIENTED_EDGE('',*,*,#348,.F.);
#465=ORIENTED_EDGE('',*,*,#338,.F.);
#466=ORIENTED_EDGE('',*,*,#349,.F.);
#467=ORIENTED_EDGE('',*,*,#350,.T.);
#468=ORIENTED_EDGE('',*,*,#326,.T.);
#469=ORIENTED_EDGE('',*,*,#350,.F.);
#470=ORIENTED_EDGE('',*,*,#320,.T.);
#471=ORIENTED_EDGE('',*,*,#304,.T.);
#472=ORIENTED_EDGE('',*,*,#351,.T.);
#473=ORIENTED_EDGE('',*,*,#352,.T.);
#474=ORIENTED_EDGE('',*,*,#353,.F.);
#475=ORIENTED_EDGE('',*,*,#354,.F.);
#476=ORIENTED_EDGE('',*,*,#352,.F.);
#477=ORIENTED_EDGE('',*,*,#355,.F.);
#478=ORIENTED_EDGE('',*,*,#356,.T.);
#479=ORIENTED_EDGE('',*,*,#351,.F.);
#480=ORIENTED_EDGE('',*,*,#356,.F.);
#481=ORIENTED_EDGE('',*,*,#357,.F.);
#482=ORIENTED_EDGE('',*,*,#358,.T.);
#483=ORIENTED_EDGE('',*,*,#359,.T.);
#484=ORIENTED_EDGE('',*,*,#358,.F.);
#485=ORIENTED_EDGE('',*,*,#359,.F.);
#486=ORIENTED_EDGE('',*,*,#360,.F.);
#487=ORIENTED_EDGE('',*,*,#361,.T.);
#488=ORIENTED_EDGE('',*,*,#362,.T.);
#489=ORIENTED_EDGE('',*,*,#361,.F.);
#490=ORIENTED_EDGE('',*,*,#362,.F.);
#491=ORIENTED_EDGE('',*,*,#363,.F.);
#492=ORIENTED_EDGE('',*,*,#364,.T.);
#493=ORIENTED_EDGE('',*,*,#365,.T.);
#494=ORIENTED_EDGE('',*,*,#364,.F.);
#495=ORIENTED_EDGE('',*,*,#365,.F.);
#496=ORIENTED_EDGE('',*,*,#366,.F.);
#497=ORIENTED_EDGE('',*,*,#367,.T.);
#498=ORIENTED_EDGE('',*,*,#368,.T.);
#499=ORIENTED_EDGE('',*,*,#367,.F.);
#500=ORIENTED_EDGE('',*,*,#368,.F.);
#501=ORIENTED_EDGE('',*,*,#355,.T.);
#502=ORIENTED_EDGE('',*,*,#369,.F.);
#503=ORIENTED_EDGE('',*,*,#370,.T.);
#504=ORIENTED_EDGE('',*,*,#353,.T.);
#505=ORIENTED_EDGE('',*,*,#354,.T.);
#506=ORIENTED_EDGE('',*,*,#370,.F.);
#507=ORIENTED_EDGE('',*,*,#369,.T.);
#508=ORIENTED_EDGE('',*,*,#371,.F.);
#509=ORIENTED_EDGE('',*,*,#372,.F.);
#510=ORIENTED_EDGE('',*,*,#373,.T.);
#511=ORIENTED_EDGE('',*,*,#371,.T.);
#512=ORIENTED_EDGE('',*,*,#373,.F.);
#513=ORIENTED_EDGE('',*,*,#374,.F.);
#514=ORIENTED_EDGE('',*,*,#372,.T.);
#515=ORIENTED_EDGE('',*,*,#375,.F.);
#516=ORIENTED_EDGE('',*,*,#376,.T.);
#517=ORIENTED_EDGE('',*,*,#374,.T.);
#518=ORIENTED_EDGE('',*,*,#376,.F.);
#519=ORIENTED_EDGE('',*,*,#377,.F.);
#520=ORIENTED_EDGE('',*,*,#378,.T.);
#521=ORIENTED_EDGE('',*,*,#375,.T.);
#522=ORIENTED_EDGE('',*,*,#378,.F.);
#523=ORIENTED_EDGE('',*,*,#377,.T.);
#524=ORIENTED_EDGE('',*,*,#349,.T.);
#525=ORIENTED_EDGE('',*,*,#357,.T.);
#526=ORIENTED_EDGE('',*,*,#360,.T.);
#527=ORIENTED_EDGE('',*,*,#363,.T.);
#528=ORIENTED_EDGE('',*,*,#366,.T.);
#529=CYLINDRICAL_SURFACE('',#637,7.65);
#530=CYLINDRICAL_SURFACE('',#649,8.8);
#531=CYLINDRICAL_SURFACE('',#655,9.8);
#532=CYLINDRICAL_SURFACE('',#657,8.4);
#533=CYLINDRICAL_SURFACE('',#661,10.5);
#534=CYLINDRICAL_SURFACE('',#670,7.);
#535=CYLINDRICAL_SURFACE('',#673,5.);
#536=CYLINDRICAL_SURFACE('',#680,1.5);
#537=CYLINDRICAL_SURFACE('',#683,1.5);
#538=CYLINDRICAL_SURFACE('',#684,11.);
#539=CYLINDRICAL_SURFACE('',#691,31.);
#540=CYLINDRICAL_SURFACE('',#693,2.);
#541=CYLINDRICAL_SURFACE('',#697,2.);
#542=CYLINDRICAL_SURFACE('',#701,2.);
#543=CYLINDRICAL_SURFACE('',#705,2.);
#544=CYLINDRICAL_SURFACE('',#710,31.5);
#545=CYLINDRICAL_SURFACE('',#714,30.5);
#546=CYLINDRICAL_SURFACE('',#718,31.5);
#547=STYLED_ITEM('',(#1148),#572);
#548=STYLED_ITEM('',(#1148),#573);
#549=STYLED_ITEM('',(#1148),#574);
#550=STYLED_ITEM('',(#1148),#575);
#551=STYLED_ITEM('',(#1148),#576);
#552=STYLED_ITEM('',(#1148),#577);
#553=STYLED_ITEM('',(#1148),#578);
#554=STYLED_ITEM('',(#1148),#579);
#555=STYLED_ITEM('',(#1148),#580);
#556=STYLED_ITEM('',(#1148),#581);
#557=STYLED_ITEM('',(#1148),#582);
#558=STYLED_ITEM('',(#1149),#583);
#559=STYLED_ITEM('',(#1148),#584);
#560=STYLED_ITEM('',(#1148),#585);
#561=STYLED_ITEM('',(#1148),#586);
#562=STYLED_ITEM('',(#1148),#587);
#563=STYLED_ITEM('',(#1148),#588);
#564=STYLED_ITEM('',(#1148),#589);
#565=STYLED_ITEM('',(#1148),#590);
#566=STYLED_ITEM('',(#1148),#591);
#567=STYLED_ITEM('',(#1148),#592);
#568=STYLED_ITEM('',(#1148),#593);
#569=STYLED_ITEM('',(#1149),#594);
#570=STYLED_ITEM('',(#1149),#595);
#571=STYLED_ITEM('',(#1147),#13);
#572=ADVANCED_FACE('',(#57),#529,.F.);
#573=ADVANCED_FACE('',(#58,#23),#38,.T.);
#574=ADVANCED_FACE('',(#59),#21,.T.);
#575=ADVANCED_FACE('',(#60,#24),#39,.T.);
#576=ADVANCED_FACE('',(#61),#530,.F.);
#577=ADVANCED_FACE('',(#62),#22,.T.);
#578=ADVANCED_FACE('',(#63),#531,.T.);
#579=ADVANCED_FACE('',(#64),#532,.T.);
#580=ADVANCED_FACE('',(#65,#25),#40,.T.);
#581=ADVANCED_FACE('',(#66),#533,.F.);
#582=ADVANCED_FACE('',(#67,#26),#41,.T.);
#583=ADVANCED_FACE('',(#68,#27),#42,.T.);
#584=ADVANCED_FACE('',(#69,#28),#43,.T.);
#585=ADVANCED_FACE('',(#70),#534,.T.);
#586=ADVANCED_FACE('',(#71),#44,.T.);
#587=ADVANCED_FACE('',(#72,#29),#535,.T.);
#588=ADVANCED_FACE('',(#73),#14,.T.);
#589=ADVANCED_FACE('',(#74),#45,.T.);
#590=ADVANCED_FACE('',(#75),#536,.F.);
#591=ADVANCED_FACE('',(#76),#46,.F.);
#592=ADVANCED_FACE('',(#77),#47,.F.);
#593=ADVANCED_FACE('',(#78),#537,.F.);
#594=ADVANCED_FACE('',(#79),#538,.F.);
#595=ADVANCED_FACE('',(#80,#30),#48,.T.);
#596=ADVANCED_FACE('',(#81),#15,.T.);
#597=ADVANCED_FACE('',(#82),#539,.T.);
#598=ADVANCED_FACE('',(#83),#540,.F.);
#599=ADVANCED_FACE('',(#84),#49,.T.);
#600=ADVANCED_FACE('',(#85),#541,.F.);
#601=ADVANCED_FACE('',(#86),#50,.T.);
#602=ADVANCED_FACE('',(#87),#542,.F.);
#603=ADVANCED_FACE('',(#88),#51,.T.);
#604=ADVANCED_FACE('',(#89),#543,.F.);
#605=ADVANCED_FACE('',(#90),#52,.T.);
#606=ADVANCED_FACE('',(#91),#53,.T.);
#607=ADVANCED_FACE('',(#92),#544,.T.);
#608=ADVANCED_FACE('',(#93,#31),#54,.T.);
#609=ADVANCED_FACE('',(#94),#545,.T.);
#610=ADVANCED_FACE('',(#95,#32),#55,.T.);
#611=ADVANCED_FACE('',(#96),#546,.T.);
#612=ADVANCED_FACE('',(#97),#16,.T.);
#613=ADVANCED_FACE('',(#98,#33,#34,#35,#36,#37),#56,.T.);
#614=CLOSED_SHELL('',(#572,#573,#574,#575,#576,#577,#578,#579,#580,#581,
#582,#583,#584,#585,#586,#587,#588,#589,#590,#591,#592,#593,#594,#595,#596,
#597,#598,#599,#600,#601,#602,#603,#604,#605,#606,#607,#608,#609,#610,#611,
#612,#613));
#615=DERIVED_UNIT_ELEMENT(#618,1.);
#616=DERIVED_UNIT_ELEMENT(#1133,-3.);
#617=DIMENSIONAL_EXPONENTS(0.,1.,0.,0.,0.,0.,0.);
#618=(
CONVERSION_BASED_UNIT('gram',#620)
MASS_UNIT()
NAMED_UNIT(#617)
);
#619=(
MASS_UNIT()
NAMED_UNIT(*)
SI_UNIT(.KILO.,.GRAM.)
);
#620=MASS_MEASURE_WITH_UNIT(MASS_MEASURE(0.001),#619);
#621=DERIVED_UNIT((#615,#616));
#622=MEASURE_REPRESENTATION_ITEM('density measure',
POSITIVE_RATIO_MEASURE(1.),#621);
#623=PROPERTY_DEFINITION_REPRESENTATION(#628,#625);
#624=PROPERTY_DEFINITION_REPRESENTATION(#629,#626);
#625=REPRESENTATION('material name',(#627),#1130);
#626=REPRESENTATION('density',(#622),#1130);
#627=DESCRIPTIVE_REPRESENTATION_ITEM('Generic','Generic');
#628=PROPERTY_DEFINITION('material property','material name',#1140);
#629=PROPERTY_DEFINITION('material property','density of part',#1140);
#630=DATE_TIME_ROLE('creation_date');
#631=APPLIED_DATE_AND_TIME_ASSIGNMENT(#632,#630,(#1140));
#632=DATE_AND_TIME(#633,#634);
#633=CALENDAR_DATE(2024,20,4);
#634=LOCAL_TIME(0,0,0.,#635);
#635=COORDINATED_UNIVERSAL_TIME_OFFSET(0,0,.BEHIND.);
#636=AXIS2_PLACEMENT_3D('',#924,#723,#724);
#637=AXIS2_PLACEMENT_3D('',#925,#725,#726);
#638=AXIS2_PLACEMENT_3D('',#927,#727,#728);
#639=AXIS2_PLACEMENT_3D('',#930,#730,#731);
#640=AXIS2_PLACEMENT_3D('',#931,#732,#733);
#641=AXIS2_PLACEMENT_3D('',#933,#734,#735);
#642=AXIS2_PLACEMENT_3D('',#934,#736,#737);
#643=AXIS2_PLACEMENT_3D('',#936,#738,#739);
#644=AXIS2_PLACEMENT_3D('',#938,#740,#741);
#645=AXIS2_PLACEMENT_3D('',#940,#742,#743);
#646=AXIS2_PLACEMENT_3D('',#941,#744,#745);
#647=AXIS2_PLACEMENT_3D('',#942,#746,#747);
#648=AXIS2_PLACEMENT_3D('',#944,#748,#749);
#649=AXIS2_PLACEMENT_3D('',#945,#750,#751);
#650=AXIS2_PLACEMENT_3D('',#948,#753,#754);
#651=AXIS2_PLACEMENT_3D('',#949,#755,#756);
#652=AXIS2_PLACEMENT_3D('',#951,#757,#758);
#653=AXIS2_PLACEMENT_3D('',#953,#759,#760);
#654=AXIS2_PLACEMENT_3D('',#954,#761,#762);
#655=AXIS2_PLACEMENT_3D('',#955,#763,#764);
#656=AXIS2_PLACEMENT_3D('',#958,#766,#767);
#657=AXIS2_PLACEMENT_3D('',#959,#768,#769);
#658=AXIS2_PLACEMENT_3D('',#961,#770,#771);
#659=AXIS2_PLACEMENT_3D('',#964,#773,#774);
#660=AXIS2_PLACEMENT_3D('',#965,#775,#776);
#661=AXIS2_PLACEMENT_3D('',#966,#777,#778);
#662=AXIS2_PLACEMENT_3D('',#968,#779,#780);
#663=AXIS2_PLACEMENT_3D('',#971,#782,#783);
#664=AXIS2_PLACEMENT_3D('',#972,#784,#785);
#665=AXIS2_PLACEMENT_3D('',#973,#786,#787);
#666=AXIS2_PLACEMENT_3D('',#975,#788,#789);
#667=AXIS2_PLACEMENT_3D('',#976,#790,#791);
#668=AXIS2_PLACEMENT_3D('',#978,#792,#793);
#669=AXIS2_PLACEMENT_3D('',#980,#794,#795);
#670=AXIS2_PLACEMENT_3D('',#981,#796,#797);
#671=AXIS2_PLACEMENT_3D('',#983,#799,#800);
#672=AXIS2_PLACEMENT_3D('',#985,#801,#802);
#673=AXIS2_PLACEMENT_3D('',#986,#803,#804);
#674=AXIS2_PLACEMENT_3D('',#989,#805,#806);
#675=AXIS2_PLACEMENT_3D('',#990,#807,#808);
#676=AXIS2_PLACEMENT_3D('',#1040,#812,#813);
#677=AXIS2_PLACEMENT_3D('',#1042,#815,#816);
#678=AXIS2_PLACEMENT_3D('',#1045,#817,#818);
#679=AXIS2_PLACEMENT_3D('',#1049,#820,#821);
#680=AXIS2_PLACEMENT_3D('',#1051,#823,#824);
#681=AXIS2_PLACEMENT_3D('',#1054,#827,#828);
#682=AXIS2_PLACEMENT_3D('',#1056,#830,#831);
#683=AXIS2_PLACEMENT_3D('',#1058,#833,#834);
#684=AXIS2_PLACEMENT_3D('',#1059,#835,#836);
#685=AXIS2_PLACEMENT_3D('',#1061,#837,#838);
#686=AXIS2_PLACEMENT_3D('',#1063,#840,#841);
#687=AXIS2_PLACEMENT_3D('',#1064,#842,#843);
#688=AXIS2_PLACEMENT_3D('',#1066,#844,#845);
#689=AXIS2_PLACEMENT_3D('',#1070,#847,#848);
#690=AXIS2_PLACEMENT_3D('',#1071,#849,#850);
#691=AXIS2_PLACEMENT_3D('',#1072,#851,#852);
#692=AXIS2_PLACEMENT_3D('',#1074,#853,#854);
#693=AXIS2_PLACEMENT_3D('',#1076,#856,#857);
#694=AXIS2_PLACEMENT_3D('',#1078,#858,#859);
#695=AXIS2_PLACEMENT_3D('',#1081,#861,#862);
#696=AXIS2_PLACEMENT_3D('',#1082,#863,#864);
#697=AXIS2_PLACEMENT_3D('',#1083,#865,#866);
#698=AXIS2_PLACEMENT_3D('',#1085,#867,#868);
#699=AXIS2_PLACEMENT_3D('',#1088,#870,#871);
#700=AXIS2_PLACEMENT_3D('',#1089,#872,#873);
#701=AXIS2_PLACEMENT_3D('',#1090,#874,#875);
#702=AXIS2_PLACEMENT_3D('',#1092,#876,#877);
#703=AXIS2_PLACEMENT_3D('',#1095,#879,#880);
#704=AXIS2_PLACEMENT_3D('',#1096,#881,#882);
#705=AXIS2_PLACEMENT_3D('',#1097,#883,#884);
#706=AXIS2_PLACEMENT_3D('',#1099,#885,#886);
#707=AXIS2_PLACEMENT_3D('',#1102,#888,#889);
#708=AXIS2_PLACEMENT_3D('',#1103,#890,#891);
#709=AXIS2_PLACEMENT_3D('',#1104,#892,#893);
#710=AXIS2_PLACEMENT_3D('',#1105,#894,#895);
#711=AXIS2_PLACEMENT_3D('',#1107,#896,#897);
#712=AXIS2_PLACEMENT_3D('',#1109,#899,#900);
#713=AXIS2_PLACEMENT_3D('',#1111,#901,#902);
#714=AXIS2_PLACEMENT_3D('',#1112,#903,#904);
#715=AXIS2_PLACEMENT_3D('',#1114,#905,#906);
#716=AXIS2_PLACEMENT_3D('',#1116,#908,#909);
#717=AXIS2_PLACEMENT_3D('',#1118,#910,#911);
#718=AXIS2_PLACEMENT_3D('',#1119,#912,#913);
#719=AXIS2_PLACEMENT_3D('',#1121,#914,#915);
#720=AXIS2_PLACEMENT_3D('',#1123,#917,#918);
#721=AXIS2_PLACEMENT_3D('',#1125,#919,#920);
#722=AXIS2_PLACEMENT_3D('',#1127,#922,#923);
#723=DIRECTION('axis',(0.,0.,1.));
#724=DIRECTION('refdir',(1.,0.,0.));
#725=DIRECTION('center_axis',(0.,0.,-1.));
#726=DIRECTION('ref_axis',(1.,0.,0.));
#727=DIRECTION('center_axis',(0.,0.,-1.));
#728=DIRECTION('ref_axis',(1.,0.,0.));
#729=DIRECTION('',(0.,0.,-1.));
#730=DIRECTION('center_axis',(0.,0.,-1.));
#731=DIRECTION('ref_axis',(1.,0.,0.));
#732=DIRECTION('center_axis',(0.,0.,1.));
#733=DIRECTION('ref_axis',(1.,0.,0.));
#734=DIRECTION('center_axis',(0.,0.,1.));
#735=DIRECTION('ref_axis',(-1.,0.,0.));
#736=DIRECTION('center_axis',(0.,0.,-1.));
#737=DIRECTION('ref_axis',(-1.,0.,0.));
#738=DIRECTION('center_axis',(0.,0.,1.));
#739=DIRECTION('ref_axis',(-1.,-1.22464679914735E-16,0.));
#740=DIRECTION('center_axis',(-1.22464679914735E-16,-1.,0.));
#741=DIRECTION('ref_axis',(1.,-1.22464679914735E-16,0.));
#742=DIRECTION('center_axis',(0.,0.,-1.));
#743=DIRECTION('ref_axis',(-1.,-1.22464679914735E-16,0.));
#744=DIRECTION('center_axis',(0.,0.,-1.));
#745=DIRECTION('ref_axis',(-1.,-1.22464679914735E-16,0.));
#746=DIRECTION('center_axis',(0.,0.,1.));
#747=DIRECTION('ref_axis',(1.,0.,0.));
#748=DIRECTION('center_axis',(0.,0.,-1.));
#749=DIRECTION('ref_axis',(-1.,0.,0.));
#750=DIRECTION('center_axis',(0.,0.,-1.));
#751=DIRECTION('ref_axis',(1.,0.,0.));
#752=DIRECTION('',(0.,0.,-1.));
#753=DIRECTION('center_axis',(0.,0.,-1.));
#754=DIRECTION('ref_axis',(1.,0.,0.));
#755=DIRECTION('center_axis',(0.,0.,1.));
#756=DIRECTION('ref_axis',(1.,0.,0.));
#757=DIRECTION('center_axis',(1.22464679914735E-16,-1.,0.));
#758=DIRECTION('ref_axis',(-1.,-1.22464679914735E-16,0.));
#759=DIRECTION('center_axis',(0.,0.,1.));
#760=DIRECTION('ref_axis',(-1.,0.,0.));
#761=DIRECTION('center_axis',(0.,0.,1.));
#762=DIRECTION('ref_axis',(-1.,0.,0.));
#763=DIRECTION('center_axis',(0.,0.,-1.));
#764=DIRECTION('ref_axis',(-1.,0.,0.));
#765=DIRECTION('',(0.,0.,-1.));
#766=DIRECTION('center_axis',(0.,0.,1.));
#767=DIRECTION('ref_axis',(-1.,0.,0.));
#768=DIRECTION('center_axis',(0.,0.,-1.));
#769=DIRECTION('ref_axis',(-1.,0.,0.));
#770=DIRECTION('center_axis',(0.,0.,1.));
#771=DIRECTION('ref_axis',(-1.,0.,0.));
#772=DIRECTION('',(0.,0.,-1.));
#773=DIRECTION('center_axis',(0.,0.,1.));
#774=DIRECTION('ref_axis',(-1.,0.,0.));
#775=DIRECTION('center_axis',(0.,0.,1.));
#776=DIRECTION('ref_axis',(1.,0.,0.));
#777=DIRECTION('center_axis',(0.,0.,-1.));
#778=DIRECTION('ref_axis',(1.,0.,0.));
#779=DIRECTION('center_axis',(0.,0.,-1.));
#780=DIRECTION('ref_axis',(1.,0.,0.));
#781=DIRECTION('',(0.,0.,-1.));
#782=DIRECTION('center_axis',(0.,0.,-1.));
#783=DIRECTION('ref_axis',(1.,0.,0.));
#784=DIRECTION('center_axis',(0.,0.,1.));
#785=DIRECTION('ref_axis',(1.,0.,0.));
#786=DIRECTION('center_axis',(0.,0.,1.));
#787=DIRECTION('ref_axis',(1.,0.,0.));
#788=DIRECTION('center_axis',(0.,0.,-1.));
#789=DIRECTION('ref_axis',(1.,0.,0.));
#790=DIRECTION('center_axis',(0.,0.,1.));
#791=DIRECTION('ref_axis',(1.,0.,0.));
#792=DIRECTION('center_axis',(0.,0.,1.));
#793=DIRECTION('ref_axis',(1.,0.,0.));
#794=DIRECTION('center_axis',(0.,0.,1.));
#795=DIRECTION('ref_axis',(1.,0.,0.));
#796=DIRECTION('center_axis',(0.,0.,1.));
#797=DIRECTION('ref_axis',(1.,0.,0.));
#798=DIRECTION('',(0.,0.,-1.));
#799=DIRECTION('center_axis',(0.,0.,1.));
#800=DIRECTION('ref_axis',(1.,0.,0.));
#801=DIRECTION('center_axis',(0.,0.,-1.));
#802=DIRECTION('ref_axis',(-1.,0.,0.));
#803=DIRECTION('center_axis',(0.,0.,1.));
#804=DIRECTION('ref_axis',(1.,0.,0.));
#805=DIRECTION('center_axis',(0.,0.,1.));
#806=DIRECTION('ref_axis',(-1.,0.,0.));
#807=DIRECTION('center_axis',(0.,0.,1.));
#808=DIRECTION('ref_axis',(-1.,0.,0.));
#809=DIRECTION('',(0.,0.,-1.));
#810=DIRECTION('',(0.,0.,1.));
#811=DIRECTION('',(0.,0.,-1.));
#812=DIRECTION('center_axis',(0.,0.,-1.));
#813=DIRECTION('ref_axis',(-1.,0.,0.));
#814=DIRECTION('',(0.707106781186549,8.65956056235495E-17,-0.707106781186546));
#815=DIRECTION('center_axis',(0.,1.,0.));
#816=DIRECTION('ref_axis',(0.,0.,1.));
#817=DIRECTION('center_axis',(0.,-1.,0.));
#818=DIRECTION('ref_axis',(-1.,0.,0.));
#819=DIRECTION('',(3.5325278056255E-16,0.,1.));
#820=DIRECTION('center_axis',(0.,-1.,0.));
#821=DIRECTION('ref_axis',(1.,0.,0.));
#822=DIRECTION('',(1.00929365875014E-16,0.,-1.));
#823=DIRECTION('center_axis',(0.,-1.,0.));
#824=DIRECTION('ref_axis',(1.,0.,0.));
#825=DIRECTION('',(0.,-1.,0.));
#826=DIRECTION('',(0.,-1.,0.));
#827=DIRECTION('center_axis',(1.,0.,-3.5325278056255E-16));
#828=DIRECTION('ref_axis',(3.5325278056255E-16,0.,1.));
#829=DIRECTION('',(0.,-1.,0.));
#830=DIRECTION('center_axis',(-1.,0.,-1.00929365875014E-16));
#831=DIRECTION('ref_axis',(1.00929365875014E-16,0.,-1.));
#832=DIRECTION('',(0.,-1.,0.));
#833=DIRECTION('center_axis',(0.,-1.,0.));
#834=DIRECTION('ref_axis',(-1.,0.,0.));
#835=DIRECTION('center_axis',(0.,0.,-1.));
#836=DIRECTION('ref_axis',(1.,0.,0.));
#837=DIRECTION('center_axis',(0.,0.,-1.));
#838=DIRECTION('ref_axis',(1.,0.,0.));
#839=DIRECTION('',(0.,0.,-1.));
#840=DIRECTION('center_axis',(0.,0.,1.));
#841=DIRECTION('ref_axis',(1.,0.,0.));
#842=DIRECTION('center_axis',(0.,0.,1.));
#843=DIRECTION('ref_axis',(1.,0.,0.));
#844=DIRECTION('center_axis',(0.,0.,1.));
#845=DIRECTION('ref_axis',(1.,0.,0.));
#846=DIRECTION('',(-0.707106781186548,8.65956056235493E-17,0.707106781186548));
#847=DIRECTION('center_axis',(0.,0.,1.));
#848=DIRECTION('ref_axis',(0.,1.,0.));
#849=DIRECTION('center_axis',(0.,0.,1.));
#850=DIRECTION('ref_axis',(0.,1.,0.));
#851=DIRECTION('center_axis',(0.,0.,1.));
#852=DIRECTION('ref_axis',(1.,0.,0.));
#853=DIRECTION('center_axis',(0.,0.,-1.));
#854=DIRECTION('ref_axis',(1.,0.,0.));
#855=DIRECTION('',(0.,0.,1.));
#856=DIRECTION('center_axis',(0.,0.,-1.));
#857=DIRECTION('ref_axis',(1.,0.,0.));
#858=DIRECTION('center_axis',(0.,0.,-1.));
#859=DIRECTION('ref_axis',(1.,0.,0.));
#860=DIRECTION('',(0.,0.,-1.));
#861=DIRECTION('center_axis',(0.,0.,-1.));
#862=DIRECTION('ref_axis',(1.,0.,0.));
#863=DIRECTION('center_axis',(0.,0.,1.));
#864=DIRECTION('ref_axis',(1.,0.,0.));
#865=DIRECTION('center_axis',(0.,0.,-1.));
#866=DIRECTION('ref_axis',(1.,0.,0.));
#867=DIRECTION('center_axis',(0.,0.,-1.));
#868=DIRECTION('ref_axis',(1.,0.,0.));
#869=DIRECTION('',(0.,0.,-1.));
#870=DIRECTION('center_axis',(0.,0.,-1.));
#871=DIRECTION('ref_axis',(1.,0.,0.));
#872=DIRECTION('center_axis',(0.,0.,1.));
#873=DIRECTION('ref_axis',(1.,0.,0.));
#874=DIRECTION('center_axis',(0.,0.,-1.));
#875=DIRECTION('ref_axis',(1.,0.,0.));
#876=DIRECTION('center_axis',(0.,0.,-1.));
#877=DIRECTION('ref_axis',(1.,0.,0.));
#878=DIRECTION('',(0.,0.,-1.));
#879=DIRECTION('center_axis',(0.,0.,-1.));
#880=DIRECTION('ref_axis',(1.,0.,0.));
#881=DIRECTION('center_axis',(0.,0.,1.));
#882=DIRECTION('ref_axis',(1.,0.,0.));
#883=DIRECTION('center_axis',(0.,0.,-1.));
#884=DIRECTION('ref_axis',(1.,0.,0.));
#885=DIRECTION('center_axis',(0.,0.,-1.));
#886=DIRECTION('ref_axis',(1.,0.,0.));
#887=DIRECTION('',(0.,0.,-1.));
#888=DIRECTION('center_axis',(0.,0.,-1.));
#889=DIRECTION('ref_axis',(1.,0.,0.));
#890=DIRECTION('center_axis',(0.,0.,1.));
#891=DIRECTION('ref_axis',(1.,0.,0.));
#892=DIRECTION('center_axis',(0.,0.,-1.));
#893=DIRECTION('ref_axis',(-1.,0.,0.));
#894=DIRECTION('center_axis',(0.,0.,1.));
#895=DIRECTION('ref_axis',(0.,1.,0.));
#896=DIRECTION('center_axis',(0.,0.,1.));
#897=DIRECTION('ref_axis',(1.,0.,0.));
#898=DIRECTION('',(0.,0.,-1.));
#899=DIRECTION('center_axis',(0.,0.,1.));
#900=DIRECTION('ref_axis',(1.,0.,0.));
#901=DIRECTION('center_axis',(0.,0.,1.));
#902=DIRECTION('ref_axis',(1.,0.,0.));
#903=DIRECTION('center_axis',(0.,0.,1.));
#904=DIRECTION('ref_axis',(0.,1.,0.));
#905=DIRECTION('center_axis',(0.,0.,1.));
#906=DIRECTION('ref_axis',(1.,0.,0.));
#907=DIRECTION('',(0.,0.,-1.));
#908=DIRECTION('center_axis',(0.,0.,-1.));
#909=DIRECTION('ref_axis',(-1.,0.,0.));
#910=DIRECTION('center_axis',(0.,0.,1.));
#911=DIRECTION('ref_axis',(1.,0.,0.));
#912=DIRECTION('center_axis',(0.,0.,1.));
#913=DIRECTION('ref_axis',(0.,1.,0.));
#914=DIRECTION('center_axis',(0.,0.,1.));
#915=DIRECTION('ref_axis',(1.,0.,0.));
#916=DIRECTION('',(0.,0.,-1.));
#917=DIRECTION('center_axis',(0.,0.,-1.));
#918=DIRECTION('ref_axis',(0.,1.,0.));
#919=DIRECTION('center_axis',(0.,0.,1.));
#920=DIRECTION('ref_axis',(1.,0.,0.));
#921=DIRECTION('',(8.65956056235493E-17,-0.707106781186547,-0.707106781186547));
#922=DIRECTION('center_axis',(0.,0.,1.));
#923=DIRECTION('ref_axis',(1.,0.,0.));
#924=CARTESIAN_POINT('',(0.,0.,0.));
#925=CARTESIAN_POINT('Origin',(0.,0.,-3.));
#926=CARTESIAN_POINT('',(-7.65,9.36854801347725E-16,-3.));
#927=CARTESIAN_POINT('Origin',(0.,0.,-3.));
#928=CARTESIAN_POINT('',(-7.65,9.36854801347725E-16,-3.5));
#929=CARTESIAN_POINT('',(-7.65,9.36854801347725E-16,-3.));
#930=CARTESIAN_POINT('Origin',(0.,0.,-3.5));
#931=CARTESIAN_POINT('Origin',(0.,0.,-3.5));
#932=CARTESIAN_POINT('',(-7.,-8.57252759403147E-16,-3.5));
#933=CARTESIAN_POINT('Origin',(0.,0.,-3.5));
#934=CARTESIAN_POINT('Origin',(0.,0.,-3.35));
#935=CARTESIAN_POINT('',(9.15,2.24110364243966E-15,-3.));
#936=CARTESIAN_POINT('Origin',(0.,0.,-3.));
#937=CARTESIAN_POINT('',(8.8,0.,-3.35));
#938=CARTESIAN_POINT('Origin',(9.15,-1.12055182121983E-15,-3.35));
#939=CARTESIAN_POINT('',(-8.8,1.07768918324967E-15,-3.35));
#940=CARTESIAN_POINT('Origin',(0.,0.,-3.35));
#941=CARTESIAN_POINT('Origin',(0.,0.,-3.35));
#942=CARTESIAN_POINT('Origin',(0.,0.,-3.));
#943=CARTESIAN_POINT('',(-9.45,-1.15729122519425E-15,-3.));
#944=CARTESIAN_POINT('Origin',(0.,0.,-3.));
#945=CARTESIAN_POINT('Origin',(0.,0.,-3.));
#946=CARTESIAN_POINT('',(-8.8,1.07768918324967E-15,-3.5));
#947=CARTESIAN_POINT('',(-8.8,1.07768918324967E-15,-3.));
#948=CARTESIAN_POINT('Origin',(0.,0.,-3.5));
#949=CARTESIAN_POINT('Origin',(0.,0.,-3.35));
#950=CARTESIAN_POINT('',(-9.8,-1.20015386316441E-15,-3.35));
#951=CARTESIAN_POINT('Origin',(-9.45,-1.15729122519425E-15,-3.35));
#952=CARTESIAN_POINT('',(9.8,1.20015386316441E-15,-3.35));
#953=CARTESIAN_POINT('Origin',(0.,0.,-3.35));
#954=CARTESIAN_POINT('Origin',(0.,0.,-3.35));
#955=CARTESIAN_POINT('Origin',(0.,0.,-3.));
#956=CARTESIAN_POINT('',(9.8,1.20015386316441E-15,-3.5));
#957=CARTESIAN_POINT('',(9.8,-1.20015386316441E-15,-3.));
#958=CARTESIAN_POINT('Origin',(0.,0.,-3.5));
#959=CARTESIAN_POINT('Origin',(0.,0.,-3.));
#960=CARTESIAN_POINT('',(8.4,1.02870331128378E-15,-3.));
#961=CARTESIAN_POINT('Origin',(0.,0.,-3.));
#962=CARTESIAN_POINT('',(8.4,1.02870331128378E-15,-3.5));
#963=CARTESIAN_POINT('',(8.4,-1.02870331128378E-15,-3.));
#964=CARTESIAN_POINT('Origin',(0.,0.,-3.5));
#965=CARTESIAN_POINT('Origin',(0.,0.,-3.5));
#966=CARTESIAN_POINT('Origin',(0.,0.,-3.));
#967=CARTESIAN_POINT('',(-10.5,1.28587913910472E-15,-3.));
#968=CARTESIAN_POINT('Origin',(0.,0.,-3.));
#969=CARTESIAN_POINT('',(-10.5,1.28587913910472E-15,-3.5));
#970=CARTESIAN_POINT('',(-10.5,1.28587913910472E-15,-3.));
#971=CARTESIAN_POINT('Origin',(0.,0.,-3.5));
#972=CARTESIAN_POINT('Origin',(0.,0.,-3.5));
#973=CARTESIAN_POINT('Origin',(0.,0.,-3.));
#974=CARTESIAN_POINT('',(-11.,1.34711147906209E-15,-3.));
#975=CARTESIAN_POINT('Origin',(0.,0.,-3.));
#976=CARTESIAN_POINT('Origin',(0.,0.,1.));
#977=CARTESIAN_POINT('',(-7.,-8.57252759403147E-16,1.));
#978=CARTESIAN_POINT('Origin',(0.,0.,1.));
#979=CARTESIAN_POINT('',(-5.,-6.12323399573677E-16,1.));
#980=CARTESIAN_POINT('Origin',(0.,0.,1.));
#981=CARTESIAN_POINT('Origin',(0.,0.,-3.));
#982=CARTESIAN_POINT('',(-7.,-8.57252759403147E-16,-3.));
#983=CARTESIAN_POINT('Origin',(0.,0.,30.));
#984=CARTESIAN_POINT('',(4.5,-5.51091059616309E-16,30.));
#985=CARTESIAN_POINT('Origin',(0.,0.,30.));
#986=CARTESIAN_POINT('Origin',(0.,0.,-4.93038065763132E-31));
#987=CARTESIAN_POINT('',(5.,6.12323399573677E-16,29.5));
#988=CARTESIAN_POINT('',(-5.,-6.12323399573677E-16,29.5));
#989=CARTESIAN_POINT('Origin',(0.,0.,29.5));
#990=CARTESIAN_POINT('Origin',(0.,0.,29.5));
#991=CARTESIAN_POINT('',(-5.,-6.12323399573677E-16,-4.93038065763132E-31));
#992=CARTESIAN_POINT('',(-1.5,4.76969600708473,13.));
#993=CARTESIAN_POINT('',(0.,5.,11.5));
#994=CARTESIAN_POINT('Ctrl Pts',(-1.5,4.76969600708473,13.));
#995=CARTESIAN_POINT('Ctrl Pts',(-1.5,4.76969600708473,12.8103613730054));
#996=CARTESIAN_POINT('Ctrl Pts',(-1.46186045804961,4.78218969528744,12.6089462572859));
#997=CARTESIAN_POINT('Ctrl Pts',(-1.30843336307883,4.82642478051604,12.2397622311419));
#998=CARTESIAN_POINT('Ctrl Pts',(-1.19320265630731,4.85743375864508,12.0718823127477));
#999=CARTESIAN_POINT('Ctrl Pts',(-0.92815717235854,4.91496781307491,11.8068368287989));
#1000=CARTESIAN_POINT('Ctrl Pts',(-0.760261209503112,4.9453559749504,11.6915755464835));
#1001=CARTESIAN_POINT('Ctrl Pts',(-0.39101885874094,4.98815066693916,11.5381258767447));
#1002=CARTESIAN_POINT('Ctrl Pts',(-0.189582132646001,5.,11.5));
#1003=CARTESIAN_POINT('Ctrl Pts',(-2.42861286636753E-16,5.,11.5));
#1004=CARTESIAN_POINT('',(1.5,4.76969600708473,13.));
#1005=CARTESIAN_POINT('Ctrl Pts',(-2.08166817117217E-16,5.,11.5));
#1006=CARTESIAN_POINT('Ctrl Pts',(0.189582132646001,5.,11.5));
#1007=CARTESIAN_POINT('Ctrl Pts',(0.391018858740939,4.98815066693916,11.5381258767447));
#1008=CARTESIAN_POINT('Ctrl Pts',(0.760261209503112,4.9453559749504,11.6915755464835));
#1009=CARTESIAN_POINT('Ctrl Pts',(0.928157172358541,4.91496781307491,11.8068368287989));
#1010=CARTESIAN_POINT('Ctrl Pts',(1.19320265630731,4.85743375864508,12.0718823127477));
#1011=CARTESIAN_POINT('Ctrl Pts',(1.30843336307883,4.82642478051604,12.2397622311419));
#1012=CARTESIAN_POINT('Ctrl Pts',(1.46186045804961,4.78218969528744,12.6089462572859));
#1013=CARTESIAN_POINT('Ctrl Pts',(1.5,4.76969600708473,12.8103613730054));
#1014=CARTESIAN_POINT('Ctrl Pts',(1.5,4.76969600708473,13.));
#1015=CARTESIAN_POINT('',(1.5,4.76969600708473,24.));
#1016=CARTESIAN_POINT('',(1.49999999999999,4.76969600708473,0.));
#1017=CARTESIAN_POINT('',(0.,5.,25.5));
#1018=CARTESIAN_POINT('Ctrl Pts',(1.5,4.76969600708473,24.));
#1019=CARTESIAN_POINT('Ctrl Pts',(1.5,4.76969600708473,24.1896386269946));
#1020=CARTESIAN_POINT('Ctrl Pts',(1.46186045804961,4.78218969528744,24.3910537427141));
#1021=CARTESIAN_POINT('Ctrl Pts',(1.30843336307883,4.82642478051604,24.7602377688581));
#1022=CARTESIAN_POINT('Ctrl Pts',(1.19320265630731,4.85743375864508,24.9281176872523));
#1023=CARTESIAN_POINT('Ctrl Pts',(0.92815717235854,4.91496781307491,25.1931631712011));
#1024=CARTESIAN_POINT('Ctrl Pts',(0.760261209503112,4.9453559749504,25.3084244535165));
#1025=CARTESIAN_POINT('Ctrl Pts',(0.39101885874094,4.98815066693916,25.4618741232553));
#1026=CARTESIAN_POINT('Ctrl Pts',(0.189582132646001,5.,25.5));
#1027=CARTESIAN_POINT('Ctrl Pts',(1.38777878078145E-16,5.,25.5));
#1028=CARTESIAN_POINT('',(-1.5,4.76969600708473,24.));
#1029=CARTESIAN_POINT('Ctrl Pts',(-4.5102810375397E-16,5.,25.5));
#1030=CARTESIAN_POINT('Ctrl Pts',(-0.189582132646002,5.,25.5));
#1031=CARTESIAN_POINT('Ctrl Pts',(-0.39101885874094,4.98815066693916,25.4618741232553));
#1032=CARTESIAN_POINT('Ctrl Pts',(-0.760261209503112,4.9453559749504,25.3084244535165));
#1033=CARTESIAN_POINT('Ctrl Pts',(-0.92815717235854,4.91496781307491,25.1931631712011));
#1034=CARTESIAN_POINT('Ctrl Pts',(-1.19320265630731,4.85743375864508,24.9281176872523));
#1035=CARTESIAN_POINT('Ctrl Pts',(-1.30843336307883,4.82642478051604,24.7602377688581));
#1036=CARTESIAN_POINT('Ctrl Pts',(-1.46186045804961,4.78218969528744,24.3910537427141));
#1037=CARTESIAN_POINT('Ctrl Pts',(-1.5,4.76969600708473,24.1896386269946));
#1038=CARTESIAN_POINT('Ctrl Pts',(-1.5,4.76969600708473,24.));
#1039=CARTESIAN_POINT('',(-1.5,4.76969600708473,0.));
#1040=CARTESIAN_POINT('Origin',(0.,0.,29.75));
#1041=CARTESIAN_POINT('',(4.75,5.81707229594993E-16,29.75));
#1042=CARTESIAN_POINT('Origin',(0.,3.5,18.5));
#1043=CARTESIAN_POINT('',(1.5,3.5,24.));
#1044=CARTESIAN_POINT('',(-1.5,3.5,24.));
#1045=CARTESIAN_POINT('Origin',(0.,3.5,24.));
#1046=CARTESIAN_POINT('',(1.5,3.5,13.));
#1047=CARTESIAN_POINT('',(1.5,3.5,24.));
#1048=CARTESIAN_POINT('',(-1.5,3.5,13.));
#1049=CARTESIAN_POINT('Origin',(0.,3.5,13.));
#1050=CARTESIAN_POINT('',(-1.5,3.5,13.));
#1051=CARTESIAN_POINT('Origin',(0.,5.,13.));
#1052=CARTESIAN_POINT('',(-1.5,5.,13.));
#1053=CARTESIAN_POINT('',(1.5,5.,13.));
#1054=CARTESIAN_POINT('Origin',(1.5,5.,13.));
#1055=CARTESIAN_POINT('',(1.5,5.,24.));
#1056=CARTESIAN_POINT('Origin',(-1.5,5.,24.));
#1057=CARTESIAN_POINT('',(-1.5,5.,24.));
#1058=CARTESIAN_POINT('Origin',(0.,5.,24.));
#1059=CARTESIAN_POINT('Origin',(0.,0.,-4.93038065763132E-31));
#1060=CARTESIAN_POINT('',(-11.,1.34711147906209E-15,-4.93038065763132E-31));
#1061=CARTESIAN_POINT('Origin',(0.,0.,-4.93038065763132E-31));
#1062=CARTESIAN_POINT('',(-11.,1.34711147906209E-15,-4.93038065763132E-31));
#1063=CARTESIAN_POINT('Origin',(0.,0.,-3.));
#1064=CARTESIAN_POINT('Origin',(0.,0.,-70.25));
#1065=CARTESIAN_POINT('',(-31.,-3.7964050773568E-15,-70.5));
#1066=CARTESIAN_POINT('Origin',(0.,0.,-70.5));
#1067=CARTESIAN_POINT('',(-31.5,0.,-70.));
#1068=CARTESIAN_POINT('',(-31.25,3.82702124733548E-15,-70.25));
#1069=CARTESIAN_POINT('',(3.85763741731417E-15,-31.5,-70.));
#1070=CARTESIAN_POINT('Origin',(0.,0.,-70.));
#1071=CARTESIAN_POINT('Origin',(0.,0.,-70.));
#1072=CARTESIAN_POINT('Origin',(0.,0.,-84.));
#1073=CARTESIAN_POINT('',(-31.,3.7964050773568E-15,-84.));
#1074=CARTESIAN_POINT('Origin',(0.,0.,-84.));
#1075=CARTESIAN_POINT('',(-31.,-3.7964050773568E-15,-84.));
#1076=CARTESIAN_POINT('Origin',(15.5563491861041,-15.556349186104,-4.93038065763132E-31));
#1077=CARTESIAN_POINT('',(13.556349186104,-15.556349186104,-4.93038065763132E-31));
#1078=CARTESIAN_POINT('Origin',(15.5563491861041,-15.556349186104,-4.93038065763132E-31));
#1079=CARTESIAN_POINT('',(13.556349186104,-15.556349186104,-5.));
#1080=CARTESIAN_POINT('',(13.556349186104,-15.556349186104,-4.93038065763132E-31));
#1081=CARTESIAN_POINT('Origin',(15.5563491861041,-15.556349186104,-5.));
#1082=CARTESIAN_POINT('Origin',(15.5563491861041,-15.556349186104,-5.));
#1083=CARTESIAN_POINT('Origin',(-15.556349186104,-15.5563491861041,-4.93038065763132E-31));
#1084=CARTESIAN_POINT('',(-17.556349186104,-15.5563491861041,-4.93038065763132E-31));
#1085=CARTESIAN_POINT('Origin',(-15.556349186104,-15.5563491861041,-4.93038065763132E-31));
#1086=CARTESIAN_POINT('',(-17.556349186104,-15.5563491861041,-5.));
#1087=CARTESIAN_POINT('',(-17.556349186104,-15.5563491861041,-4.93038065763132E-31));
#1088=CARTESIAN_POINT('Origin',(-15.556349186104,-15.5563491861041,-5.));
#1089=CARTESIAN_POINT('Origin',(-15.556349186104,-15.5563491861041,-5.));
#1090=CARTESIAN_POINT('Origin',(-15.5563491861041,15.556349186104,-4.93038065763132E-31));
#1091=CARTESIAN_POINT('',(-17.5563491861041,15.556349186104,-4.93038065763132E-31));
#1092=CARTESIAN_POINT('Origin',(-15.5563491861041,15.556349186104,-4.93038065763132E-31));
#1093=CARTESIAN_POINT('',(-17.5563491861041,15.556349186104,-5.));
#1094=CARTESIAN_POINT('',(-17.5563491861041,15.556349186104,-4.93038065763132E-31));
#1095=CARTESIAN_POINT('Origin',(-15.5563491861041,15.556349186104,-5.));
#1096=CARTESIAN_POINT('Origin',(-15.5563491861041,15.556349186104,-5.));
#1097=CARTESIAN_POINT('Origin',(15.556349186104,15.5563491861041,-4.93038065763132E-31));
#1098=CARTESIAN_POINT('',(13.556349186104,15.5563491861041,-4.93038065763132E-31));
#1099=CARTESIAN_POINT('Origin',(15.556349186104,15.5563491861041,-4.93038065763132E-31));
#1100=CARTESIAN_POINT('',(13.556349186104,15.5563491861041,-5.));
#1101=CARTESIAN_POINT('',(13.556349186104,15.5563491861041,-4.93038065763132E-31));
#1102=CARTESIAN_POINT('Origin',(15.556349186104,15.5563491861041,-5.));
#1103=CARTESIAN_POINT('Origin',(15.556349186104,15.5563491861041,-5.));
#1104=CARTESIAN_POINT('Origin',(0.,31.5,-84.));
#1105=CARTESIAN_POINT('Origin',(0.,0.,-45.25));
#1106=CARTESIAN_POINT('',(3.85763741731417E-15,-31.5,-6.49999999999999));
#1107=CARTESIAN_POINT('Origin',(0.,0.,-6.5));
#1108=CARTESIAN_POINT('',(3.85763741731417E-15,-31.5,-45.25));
#1109=CARTESIAN_POINT('Origin',(0.,30.5,-6.5));
#1110=CARTESIAN_POINT('',(3.73517273739943E-15,-30.5,-6.5));
#1111=CARTESIAN_POINT('Origin',(0.,0.,-6.5));
#1112=CARTESIAN_POINT('Origin',(0.,0.,-6.));
#1113=CARTESIAN_POINT('',(3.73517273739943E-15,-30.5,-5.5));
#1114=CARTESIAN_POINT('Origin',(0.,0.,-5.5));
#1115=CARTESIAN_POINT('',(3.73517273739943E-15,-30.5,-6.));
#1116=CARTESIAN_POINT('Origin',(0.,31.5,-5.5));
#1117=CARTESIAN_POINT('',(3.85763741731416E-15,-31.5,-5.5));
#1118=CARTESIAN_POINT('Origin',(0.,0.,-5.5));
#1119=CARTESIAN_POINT('Origin',(0.,0.,-5.));
#1120=CARTESIAN_POINT('',(3.85763741731416E-15,-31.5,-4.5));
#1121=CARTESIAN_POINT('Origin',(0.,0.,-4.5));
#1122=CARTESIAN_POINT('',(3.85763741731416E-15,-31.5,-5.));
#1123=CARTESIAN_POINT('Origin',(0.,0.,-2.25));
#1124=CARTESIAN_POINT('',(3.30654635769785E-15,-27.,4.44089209850063E-15));
#1125=CARTESIAN_POINT('Origin',(0.,0.,3.33066907387547E-15));
#1126=CARTESIAN_POINT('',(3.58209188750601E-15,-29.25,-2.25));
#1127=CARTESIAN_POINT('Origin',(0.,0.,-4.93038065763132E-31));
#1128=UNCERTAINTY_MEASURE_WITH_UNIT(LENGTH_MEASURE(0.01),#1132,
'DISTANCE_ACCURACY_VALUE',
'Maximum model space distance between geometric entities at asserted c
onnectivities');
#1129=UNCERTAINTY_MEASURE_WITH_UNIT(LENGTH_MEASURE(0.01),#1132,
'DISTANCE_ACCURACY_VALUE',
'Maximum model space distance between geometric entities at asserted c
onnectivities');
#1130=(
GEOMETRIC_REPRESENTATION_CONTEXT(3)
GLOBAL_UNCERTAINTY_ASSIGNED_CONTEXT((#1128))
GLOBAL_UNIT_ASSIGNED_CONTEXT((#1132,#1134,#1135))
REPRESENTATION_CONTEXT('','3D')
);
#1131=(
GEOMETRIC_REPRESENTATION_CONTEXT(3)
GLOBAL_UNCERTAINTY_ASSIGNED_CONTEXT((#1129))
GLOBAL_UNIT_ASSIGNED_CONTEXT((#1132,#1134,#1135))
REPRESENTATION_CONTEXT('','3D')
);
#1132=(
LENGTH_UNIT()
NAMED_UNIT(*)
SI_UNIT(.MILLI.,.METRE.)
);
#1133=(
LENGTH_UNIT()
NAMED_UNIT(*)
SI_UNIT(.CENTI.,.METRE.)
);
#1134=(
NAMED_UNIT(*)
PLANE_ANGLE_UNIT()
SI_UNIT($,.RADIAN.)
);
#1135=(
NAMED_UNIT(*)
SI_UNIT($,.STERADIAN.)
SOLID_ANGLE_UNIT()
);
#1136=SHAPE_DEFINITION_REPRESENTATION(#1137,#1138);
#1137=PRODUCT_DEFINITION_SHAPE('',$,#1140);
#1138=SHAPE_REPRESENTATION('',(#636),#1130);
#1139=PRODUCT_DEFINITION_CONTEXT('part definition',#1144,'design');
#1140=PRODUCT_DEFINITION('Flipsky E-Board Motor 6384 190KV',
'Flipsky E-Board Motor 6384 190KV',#1141,#1139);
#1141=PRODUCT_DEFINITION_FORMATION('',$,#1146);
#1142=PRODUCT_RELATED_PRODUCT_CATEGORY(
'Flipsky E-Board Motor 6384 190KV','Flipsky E-Board Motor 6384 190KV',(#1146));
#1143=APPLICATION_PROTOCOL_DEFINITION('international standard',
'automotive_design',2009,#1144);
#1144=APPLICATION_CONTEXT(
'Core Data for Automotive Mechanical Design Process');
#1145=PRODUCT_CONTEXT('part definition',#1144,'mechanical');
#1146=PRODUCT('Flipsky E-Board Motor 6384 190KV',
'Flipsky E-Board Motor 6384 190KV',$,(#1145));
#1147=PRESENTATION_STYLE_ASSIGNMENT((#1150));
#1148=PRESENTATION_STYLE_ASSIGNMENT((#1151));
#1149=PRESENTATION_STYLE_ASSIGNMENT((#1152));
#1150=SURFACE_STYLE_USAGE(.BOTH.,#1159);
#1151=SURFACE_STYLE_USAGE(.BOTH.,#1160);
#1152=SURFACE_STYLE_USAGE(.BOTH.,#1161);
#1153=SURFACE_STYLE_RENDERING_WITH_PROPERTIES($,#1171,(#1156));
#1154=SURFACE_STYLE_RENDERING_WITH_PROPERTIES($,#1172,(#1157));
#1155=SURFACE_STYLE_RENDERING_WITH_PROPERTIES($,#1173,(#1158));
#1156=SURFACE_STYLE_TRANSPARENT(0.);
#1157=SURFACE_STYLE_TRANSPARENT(0.);
#1158=SURFACE_STYLE_TRANSPARENT(0.);
#1159=SURFACE_SIDE_STYLE('',(#1162,#1153));
#1160=SURFACE_SIDE_STYLE('',(#1163,#1154));
#1161=SURFACE_SIDE_STYLE('',(#1164,#1155));
#1162=SURFACE_STYLE_FILL_AREA(#1165);
#1163=SURFACE_STYLE_FILL_AREA(#1166);
#1164=SURFACE_STYLE_FILL_AREA(#1167);
#1165=FILL_AREA_STYLE('',(#1168));
#1166=FILL_AREA_STYLE('',(#1169));
#1167=FILL_AREA_STYLE('',(#1170));
#1168=FILL_AREA_STYLE_COLOUR('',#1171);
#1169=FILL_AREA_STYLE_COLOUR('',#1172);
#1170=FILL_AREA_STYLE_COLOUR('',#1173);
#1171=COLOUR_RGB('',0.250980392156863,0.282352941176471,0.274509803921569);
#1172=COLOUR_RGB('',0.956862745098039,0.956862745098039,0.956862745098039);
#1173=COLOUR_RGB('',0.956862745098039,0.956862745098039,0.956862745098039);
ENDSEC;
END-ISO-10303-21;
